<?xml version="1.0" encoding="UTF-8"?>
<svg width="800" height="800" viewBox="0 0 800 800" fill="none" xmlns="http://www.w3.org/2000/svg">
  <circle cx="400" cy="400" r="380" stroke="#87BB82" stroke-opacity="0.2" stroke-width="1"/>
  <circle cx="400" cy="400" r="300" stroke="#55828B" stroke-opacity="0.15" stroke-width="1"/>
  <circle cx="400" cy="400" r="220" stroke="#87BB82" stroke-opacity="0.2" stroke-width="1"/>
  <circle cx="400" cy="400" r="140" stroke="#55828B" stroke-opacity="0.15" stroke-width="1"/>
  
  <line x1="400" y1="20" x2="400" y2="780" stroke="#C9E4CA" stroke-opacity="0.2" stroke-width="1"/>
  <line x1="20" y1="400" x2="780" y2="400" stroke="#C9E4CA" stroke-opacity="0.2" stroke-width="1"/>
  
  <path d="M400 100L405 390L430 400L405 410L400 700L395 410L370 400L395 390L400 100Z" fill="#3B6064" fill-opacity="0.1"/>
  <path d="M100 400L390 395L400 370L410 395L700 400L410 405L400 430L390 405L100 400Z" fill="#3B6064" fill-opacity="0.1"/>

  <text x="390" y="60" fill="#55828B" fill-opacity="0.3" font-family="sans-serif" font-size="20">N</text>
  <text x="390" y="760" fill="#55828B" fill-opacity="0.3" font-family="sans-serif" font-size="20">S</text>
  <text x="750" y="410" fill="#55828B" fill-opacity="0.3" font-family="sans-serif" font-size="20">E</text>
  <text x="40" y="410" fill="#55828B" fill-opacity="0.3" font-family="sans-serif" font-size="20">W</text>
</svg>