<?xml version="1.0" encoding="UTF-8"?>
<svg width="800" height="800" viewBox="0 0 800 800" fill="none" xmlns="http://www.w3.org/2000/svg">
  <g opacity="0.5">
    <path d="M0 800L200 500L300 600L500 300L600 400L800 100V800H0Z" stroke="#C9E4CA" stroke-width="2"/>
    <path d="M0 800L100 600L200 700L400 400L600 600L800 300V800H0Z" stroke="#87BB82" stroke-width="2"/>
    <path d="M0 800L150 550L250 650L450 350L550 450L750 150V800H0Z" stroke="#55828B" stroke-width="2"/>
  </g>
  
  <circle cx="300" cy="600" r="8" fill="#C9E4CA"/>
  <circle cx="500" cy="300" r="8" fill="#87BB82"/>
  <circle cx="600" cy="400" r="8" fill="#55828B"/>
  <circle cx="200" cy="700" r="8" fill="#3B6064"/>
  
  <path d="M300 600L500 300" stroke="#87BB82" stroke-width="2" stroke-dasharray="4 4"/>
  <path d="M500 300L600 400" stroke="#55828B" stroke-width="2" stroke-dasharray="4 4"/>
  <path d="M200 700L300 600" stroke="#C9E4CA" stroke-width="2" stroke-dasharray="4 4"/>
  
  <path d="M280 600L320 600" stroke="#C9E4CA" stroke-width="2"/>
  <path d="M300 580L300 620" stroke="#C9E4CA" stroke-width="2"/>
  
  <path d="M480 300L520 300" stroke="#87BB82" stroke-width="2"/>
  <path d="M500 280L500 320" stroke="#87BB82" stroke-width="2"/>
  
  <path d="M580 400L620 400" stroke="#55828B" stroke-width="2"/>
  <path d="M600 380L600 420" stroke="#55828B" stroke-width="2"/>
</svg>