<?xml version="1.0" encoding="UTF-8"?>
<svg width="1440" height="400" viewBox="0 0 1440 400" fill="none" xmlns="http://www.w3.org/2000/svg">
  <path d="M0 400L120 320L240 360L360 280L480 340L600 260L720 300L840 230L960 340L1080 250L1200 320L1320 270L1440 340V400H0Z" fill="#87BB82" fill-opacity="0.15"/>
  <path d="M0 400L180 300L360 380L540 270L720 360L900 250L1080 330L1260 260L1440 380V400H0Z" fill="#55828B" fill-opacity="0.12"/>
  <path d="M0 400L80 350L160 370L240 320L320 360L400 310L480 350L560 300L640 340L720 290L800 330L880 280L960 320L1040 270L1120 310L1200 260L1280 300L1360 250L1440 290V400H0Z" fill="#3B6064" fill-opacity="0.08"/>
</svg>