<?xml version="1.0" encoding="UTF-8"?>
<svg width="1440" height="900" viewBox="0 0 1440 900" fill="none" xmlns="http://www.w3.org/2000/svg">
  <path d="M0 900L360 450L560 650L880 230L1080 430L1440 0V900H0Z" fill="#364958"/>
  <path d="M0 900L280 500L480 700L720 360L1000 640L1200 320L1440 560V900H0Z" fill="#3B6064"/>
  <path d="M0 900L160 550L300 700L560 420L760 620L1100 280L1280 460L1440 300V900H0Z" fill="#55828B"/>
  <path d="M0 900L240 600L400 760L640 500L800 680L1040 440L1200 600L1440 360V900H0Z" fill="#87BB82"/>
</svg>