<?xml version="1.0" encoding="UTF-8"?>
<svg width="600" height="600" viewBox="0 0 600 600" fill="none" xmlns="http://www.w3.org/2000/svg">
  <path d="M0 50C27.5 50 27.5 0 55 0C82.5 0 82.5 50 110 50C137.5 50 137.5 0 165 0C192.5 0 192.5 50 220 50C247.5 50 247.5 0 275 0C302.5 0 302.5 50 330 50C357.5 50 357.5 0 385 0C412.5 0 412.5 50 440 50C467.5 50 467.5 0 495 0C522.5 0 522.5 50 550 50C577.5 50 577.5 0 605 0" stroke="#C9E4CA" stroke-opacity="0.3" stroke-width="1"/>
  <path d="M0 100C27.5 100 27.5 50 55 50C82.5 50 82.5 100 110 100C137.5 100 137.5 50 165 50C192.5 50 192.5 100 220 100C247.5 100 247.5 50 275 50C302.5 50 302.5 100 330 100C357.5 100 357.5 50 385 50C412.5 50 412.5 100 440 100C467.5 100 467.5 50 495 50C522.5 50 522.5 100 550 100C577.5 100 577.5 50 605 50" stroke="#87BB82" stroke-opacity="0.2" stroke-width="1"/>
  <path d="M0 150C27.5 150 27.5 100 55 100C82.5 100 82.5 150 110 150C137.5 150 137.5 100 165 100C192.5 100 192.5 150 220 150C247.5 150 247.5 100 275 100C302.5 100 302.5 150 330 150C357.5 150 357.5 100 385 100C412.5 100 412.5 150 440 150C467.5 150 467.5 100 495 100C522.5 100 522.5 150 550 150C577.5 150 577.5 100 605 100" stroke="#55828B" stroke-opacity="0.2" stroke-width="1"/>
  <path d="M0 200C27.5 200 27.5 150 55 150C82.5 150 82.5 200 110 200C137.5 200 137.5 150 165 150C192.5 150 192.5 200 220 200C247.5 200 247.5 150 275 150C302.5 150 302.5 200 330 200C357.5 200 357.5 150 385 150C412.5 150 412.5 200 440 200C467.5 200 467.5 150 495 150C522.5 150 522.5 200 550 200C577.5 200 577.5 150 605 150" stroke="#C9E4CA" stroke-opacity="0.3" stroke-width="1"/>
  <path d="M0 250C27.5 250 27.5 200 55 200C82.5 200 82.5 250 110 250C137.5 250 137.5 200 165 200C192.5 200 192.5 250 220 250C247.5 250 247.5 200 275 200C302.5 200 302.5 250 330 250C357.5 250 357.5 200 385 200C412.5 200 412.5 250 440 250C467.5 250 467.5 200 495 200C522.5 200 522.5 250 550 250C577.5 250 577.5 200 605 200" stroke="#87BB82" stroke-opacity="0.2" stroke-width="1"/>
  <path d="M0 300C27.5 300 27.5 250 55 250C82.5 250 82.5 300 110 300C137.5 300 137.5 250 165 250C192.5 250 192.5 300 220 300C247.5 300 247.5 250 275 250C302.5 250 302.5 300 330 300C357.5 300 357.5 250 385 250C412.5 250 412.5 300 440 300C467.5 300 467.5 250 495 250C522.5 250 522.5 300 550 300C577.5 300 577.5 250 605 250" stroke="#55828B" stroke-opacity="0.2" stroke-width="1"/>
  <path d="M0 350C27.5 350 27.5 300 55 300C82.5 300 82.5 350 110 350C137.5 350 137.5 300 165 300C192.5 300 192.5 350 220 350C247.5 350 247.5 300 275 300C302.5 300 302.5 350 330 350C357.5 350 357.5 300 385 300C412.5 300 412.5 350 440 350C467.5 350 467.5 300 495 300C522.5 300 522.5 350 550 350C577.5 350 577.5 300 605 300" stroke="#C9E4CA" stroke-opacity="0.3" stroke-width="1"/>
  <path d="M0 400C27.5 400 27.5 350 55 350C82.5 350 82.5 400 110 400C137.5 400 137.5 350 165 350C192.5 350 192.5 400 220 400C247.5 400 247.5 350 275 350C302.5 350 302.5 400 330 400C357.5 400 357.5 350 385 350C412.5 350 412.5 400 440 400C467.5 400 467.5 350 495 350C522.5 350 522.5 400 550 400C577.5 400 577.5 350 605 350" stroke="#87BB82" stroke-opacity="0.2" stroke-width="1"/>
  <path d="M0 450C27.5 450 27.5 400 55 400C82.5 400 82.5 450 110 450C137.5 450 137.5 400 165 400C192.5 400 192.5 450 220 450C247.5 450 247.5 400 275 400C302.5 400 302.5 450 330 450C357.5 450 357.5 400 385 400C412.5 400 412.5 450 440 450C467.5 450 467.5 400 495 400C522.5 400 522.5 450 550 450C577.5 450 577.5 400 605 400" stroke="#55828B" stroke-opacity="0.2" stroke-width="1"/>
  <path d="M0 500C27.5 500 27.5 450 55 450C82.5 450 82.5 500 110 500C137.5 500 137.5 450 165 450C192.5 450 192.5 500 220 500C247.5 500 247.5 450 275 450C302.5 450 302.5 500 330 500C357.5 500 357.5 450 385 450C412.5 450 412.5 500 440 500C467.5 500 467.5 450 495 450C522.5 450 522.5 500 550 500C577.5 500 577.5 450 605 450" stroke="#C9E4CA" stroke-opacity="0.3" stroke-width="1"/>
  <path d="M0 550C27.5 550 27.5 500 55 500C82.5 500 82.5 550 110 550C137.5 550 137.5 500 165 500C192.5 500 192.5 550 220 550C247.5 550 247.5 500 275 500C302.5 500 302.5 550 330 550C357.5 550 357.5 500 385 500C412.5 500 412.5 550 440 550C467.5 550 467.5 500 495 500C522.5 500 522.5 550 550 550C577.5 550 577.5 500 605 500" stroke="#87BB82" stroke-opacity="0.2" stroke-width="1"/>
  <path d="M0 600C27.5 600 27.5 550 55 550C82.5 550 82.5 600 110 600C137.5 600 137.5 550 165 550C192.5 550 192.5 600 220 600C247.5 600 247.5 550 275 550C302.5 550 302.5 600 330 600C357.5 600 357.5 550 385 550C412.5 550 412.5 600 440 600C467.5 600 467.5 550 495 550C522.5 550 522.5 600 550 600C577.5 600 577.5 550 605 550" stroke="#55828B" stroke-opacity="0.2" stroke-width="1"/>
</svg>